
<svg xmlns="http://www.w3.org/2000/svg" viewBox="0 0 98 96">
  <path fill="currentColor"
    d="M49 0C21.9 0 0 22.2 0 49.6c0 21.9 13.9 40.4 33.2 47
    2.4.4 3.3-1.1 3.3-2.4 0-1.2-.1-5.2-.1-9.4
    -13.5 3-16.3-5.9-16.3-5.9-2.2-5.8-5.5-7.3-5.5-7.3
    -4.5-3.2.3-3.1.3-3.1 5 .4 7.7 5.2 7.7 5.2
    4.4 7.7 11.6 5.5 14.4 4.2.4-3.3 1.7-5.5 3.1-6.8
    -10.8-1.3-22.2-5.5-22.2-24.5
    0-5.4 1.9-9.8 5-13.3
    -.5-1.3-2.2-6.5.5-13.5 0 0 4.1-1.3 13.4 5.1
    3.9-1.1 8-1.6 12.1-1.6
    4.1 0 8.2.6 12.1 1.6
    9.3-6.4 13.4-5.1 13.4-5.1
    2.7 7 .9 12.2.5 13.5
    3.1 3.5 5 7.9 5 13.3
    0 19-11.4 23.2-22.3 24.5
    1.8 1.6 3.4 4.7 3.4 9.5
    0 6.9-.1 12.4-.1 14.1
    0 1.3.9 2.8 3.3 2.4
    19.3-6.6 33.2-25.1 33.2-47
    C98 22.2 76.1 0 49 0z"/>
</svg>
